<svg viewBox="0 0 1619.05 376.32" xmlns="http://www.w3.org/2000/svg" data-name="Calque 1" id="Calque_1">
  <defs>
    <style>
      .cls-1 {
        fill: #fff;
      }
    </style>
  </defs>
  <g>
    <g>
      <path d="M728.59,256.53h-50.4v-100.8h16.71c28.68,0,38.42,15.04,39.82,39.54h1.39v-80.75h-1.39c-1.39,24.78-11.14,39.82-39.82,39.82h-16.71v-89.94h39.54c32.3,0,46.78,19.21,49.28,47.61h1.39v-49.01h-298v51.79h1.39c3.01-23.85,15.66-42.87,39.05-48.61v129.63c0,39.82-22,63.21-60.42,63.21-33.97,0-47.06-22.83-47.06-64.32V64.41h25.06v-1.39h-77.13v1.39h25.34v130.31c0,10.81,1.33,20.05,3.85,27.88l-60.06-161.53h-1.95l-71.14,192.82c-4.84,1.71-10.25,2.64-16.26,2.64h-50.4v-100.8h16.71c28.68,0,38.42,15.04,39.82,39.54h1.39v-80.75h-1.39c-1.39,24.78-11.14,39.82-39.82,39.82h-16.71v-89.94h39.54c32.3,0,46.78,19.21,49.28,47.61h1.39v-49.01h-142v1.39h25.06v192.12h-25.06v1.39h152.59v-59.86h-1.39c-1.1,21-8.09,39.76-22.02,50.08,17.41-47.36,34.82-94.72,52.23-142.07l31.3,83.64c.19.46.37.93.56,1.39l24.22,65.43h-25.06v1.39h77.13v-.53c8.66,2.3,18.45,3.32,29.2,3.32,38.42,0,64.6-20.88,64.6-64.88V65.87c4.35-.95,9.06-1.46,14.13-1.46h14.76v192.12h-25.34v1.39h77.41v-1.39h-25.34V64.41h14.76c33.41,0,51.23,21.72,54.57,50.4h1.39v-50.4h12.88v192.12h-25.06v1.39h152.59v-59.86h-1.39c-1.67,31.74-16.71,58.47-49.01,58.47ZM255.83,249.71c-2.05,1.32-4.23,2.48-6.55,3.43,19.17-52.14,38.34-104.29,57.51-156.43l2.77,7.39-53.72,145.61ZM393.11,256.53l-10.87-29.25c6.33,15.24,17.8,24.47,33.23,29.25h-22.36Z" class="cls-1"></path>
      <path d="M447.65,261.1c-10.9,0-20.59-1.08-28.81-3.2v.42h-77.9v-2.16h24.89l-24.03-64.91-.55-1.38-30.94-82.67-51.41,139.85c12.29-9.74,19.66-27.06,20.82-48.98l.02-.37h2.15v60.64h-153.36v-2.16h25.06V64.8h-25.06v-2.16h142.78v49.78h-2.13l-.03-.35c-1.3-14.78-5.8-26.3-13.36-34.22-8.25-8.65-20.21-13.04-35.53-13.04h-39.15v89.16h16.32c13.71,0,23.48-3.43,29.85-10.49,5.7-6.31,8.84-15.79,9.58-28.96l.02-.36h2.14v81.52h-2.14l-.02-.36c-1.54-27.09-13.7-39.17-39.43-39.17h-16.32v100.02h50.01c5.73,0,11.1-.86,15.96-2.56l71.17-192.91h2.49l.09.25,57.38,154.34c-1.28-6.2-1.92-13.09-1.92-20.56V64.8h-25.34v-2.16h77.9v2.16h-25.06v129.92c0,43.62,14.83,63.93,46.67,63.93,38.15,0,60.04-22.9,60.04-62.82V66.7c-21.46,5.46-35.05,22.55-38.28,48.16l-.04.34h-2.12v-52.56h298.77v49.78h-2.13l-.03-.35c-1.3-14.78-5.8-26.3-13.36-34.22-8.25-8.65-20.21-13.04-35.53-13.04h-39.15v89.16h16.32c13.71,0,23.48-3.43,29.85-10.49,5.7-6.31,8.84-15.79,9.58-28.96l.02-.36h2.14v81.52h-2.14l-.02-.36c-1.54-27.09-13.7-39.17-39.43-39.17h-16.32v100.02h50.01c28.53,0,46.7-21.72,48.62-58.11l.02-.37h2.15v60.64h-153.36v-2.16h25.06V64.8h-12.1v50.4h-2.12l-.04-.34c-1.71-14.72-7.21-27.07-15.9-35.73-9.55-9.51-22.43-14.33-38.29-14.33h-14.37v191.35h25.34v2.16h-78.18v-2.16h25.34V64.8h-14.37c-4.81,0-9.43.47-13.75,1.39v129.65c0,41.48-23.69,65.26-64.98,65.26ZM418.06,256.89l.49.13c8.26,2.19,18.06,3.3,29.1,3.3,40.81,0,64.21-23.51,64.21-64.49V65.56l.3-.07c4.46-.97,9.24-1.47,14.22-1.47h15.14v192.9h-25.34v.62h76.63v-.62h-25.34V64.02h15.14c30.6,0,51.11,18.83,54.92,50.4h.66v-50.4h13.65v192.9h-25.06v.62h151.81v-59.09h-.64c-2.04,36.62-20.48,58.47-49.37,58.47h-50.78v-101.57h17.09c26.12,0,38.53,12.2,40.18,39.54h.64v-79.98h-.64c-1.65,27.53-14.05,39.82-40.18,39.82h-17.09v-90.71h39.93c29.61,0,46.77,16.46,49.64,47.61h.65v-48.23h-297.23v51.02h.67c3.38-25.96,17.32-43.21,39.3-48.6l.48-.12v130.13c0,19.68-5.5,35.87-15.91,46.8-10.46,10.98-25.98,16.79-44.9,16.79-32.37,0-47.44-20.56-47.44-64.71V64.02h25.06v-.62h-76.36v.62h25.34v130.7c0,10.53,1.29,19.87,3.83,27.76l-.73.25-59.96-161.28h-1.41l-71.11,192.74-.17.06c-5,1.77-10.51,2.66-16.39,2.66h-50.78v-101.57h17.09c26.12,0,38.53,12.2,40.18,39.54h.64v-79.98h-.64c-1.65,27.53-14.05,39.82-40.18,39.82h-17.09v-90.71h39.92c29.61,0,46.77,16.46,49.64,47.61h.65v-48.23h-141.23v.62h25.06v192.9h-25.06v.62h151.81v-59.09h-.64c-1.26,22.6-9.13,40.35-22.16,50l-1.04.77,53.04-144.26,32.22,86,24.42,65.96h-25.23v.62h76.36v-.65ZM418.02,256.92h-25.18l-10.97-29.5.72-.28c6.03,14.52,16.82,24.02,32.99,29.03l2.44.76ZM393.38,256.15h19.67c-12.59-4.37-21.77-11.62-27.86-22.03l8.19,22.03ZM248.61,253.83l58.17-158.24,3.18,8.5-.05.13-53.77,145.73-.11.07c-2.15,1.38-4.37,2.55-6.62,3.47l-.81.33ZM306.79,97.82l-56.84,154.62c1.88-.83,3.75-1.83,5.57-2.98l53.63-145.35-2.35-6.28Z" class="cls-1"></path>
    </g>
    <g>
      <path d="M734.44,17.08c5.57-5.85,7.52-11.14,2.51-15.04-4.73-3.9-9.75-.56-13.64,6.4-4.73,7.52-21.16,37.31-21.16,37.31l1.11.84s24.78-23.39,31.19-29.51Z" class="cls-1"></path>
      <path d="M703.28,47.09l-1.64-1.23.16-.29c.16-.3,16.49-29.89,21.17-37.33,2.66-4.75,5.66-7.56,8.69-8.13,1.92-.36,3.78.19,5.53,1.64,1.85,1.44,2.87,3.15,3.01,5.08.22,2.98-1.57,6.42-5.48,10.52h-.01c-6.33,6.07-30.94,29.3-31.19,29.53l-.24.22ZM702.64,45.65l.58.44c2.56-2.41,24.93-23.54,30.94-29.28,3.69-3.88,5.47-7.22,5.26-9.93-.13-1.72-1.02-3.21-2.72-4.53-1.58-1.3-3.23-1.8-4.9-1.48-2.79.52-5.61,3.21-8.17,7.77-4.43,7.04-19.28,33.89-21,37.02Z" class="cls-1"></path>
    </g>
    <g>
      <path d="M1088.99,64.41h25.06v130.31c0,41.49-13.09,64.32-47.06,64.32-1.05,0-2.08-.03-3.11-.06,0-.01,0-.03.01-.04-.26,0-.53,0-.8.02-17.98-.77-32.08-6.93-41.71-17.68,30.5-18.97,40.48-51.17,40.48-80.8,0-34.19-13.12-71.47-55.3-88.3v-7.77h25.06v-1.39h-56.98v1.3c-6.97-.85-14.46-1.3-22.49-1.3h-81.3v1.39h25.34v192.12h-25.34v1.39h81.3c27.2,0,48.15-5.18,64.1-13.71.83.76,3.12,2.82,5.67,4.64,2.26,1.61,7.25,4.68,14.38,7.38,0,0,8.52,3.14,18.72,4.1,2.22.21,4.44.29,5,.31.86-.04,1.71-.07,2.57-.11.25,0,.51-.02.76-.03,0,0,0-.02,0-.02,2.09.13,4.22.22,6.4.22,43.16,0,71-16.43,71-65.99V64.41h25.34v-1.39h-77.13v1.39ZM1005.18,64.41v7.22c-1.23-.47-2.52-.9-3.8-1.34v-5.88h3.8ZM979.85,64.41h20.15v5.39c-7.41-2.42-15.63-4.24-24.72-5.39h4.57ZM922.65,256.53V64.41h29.51c19.63,0,34.6,4.1,46.01,10.87.03,40.18.05,80.37.08,120.55-.35,8.44.89,15.22,2.06,19.75,1.18,4.55,2.64,8.22,3.74,10.67,1.88,4.19,3.94,7.62,5.8,10.34-12.22,12-30.48,19.93-57.69,19.93h-29.51ZM1010.29,236.17v-.65c-.53-.85-1.16-1.9-1.84-3.12,0,0-1.21-2.18-2.27-4.45-2.97-6.38-4.61-13.16-4.61-13.16-1.77-7.32-2.09-13.9-1.92-18.96.08-39.83.17-79.66.25-119.48,1.85,1.18,3.62,2.43,5.28,3.75v115.73c0,14.87,3,27.09,8.44,36.76-1.05,1.23-2.17,2.42-3.33,3.58ZM1006.58,195.83v-114.6c23.21,19.62,27.17,52.73,27.17,79.23,0,22.97-3.02,51.14-19.21,71.02-5.22-9.65-7.97-21.63-7.97-35.66ZM1035.67,254.73c-5.5-2.02-9.15-4.29-9.97-4.81-3.47-2.15-6.19-4.39-8.26-6.33.98-.54,1.95-1.09,2.89-1.66,6.75,7.47,15.55,12.66,25.92,15.66-3.73-.7-7.26-1.65-10.58-2.86Z" class="cls-1"></path>
      <path d="M1069.78,261.1c-1.99,0-4.04-.07-6.27-.21l-.88.04-2.57.11c-.65-.02-2.84-.11-5.06-.31-10.07-.95-18.46-4-18.82-4.13-8.03-3.04-13.11-6.45-14.47-7.42-2.37-1.69-4.52-3.59-5.51-4.49-17.05,9.04-38.59,13.62-64.05,13.62h-81.69v-2.16h25.34V64.8h-25.34v-2.16h81.69c7.7,0,15.13.42,22.1,1.25v-1.25h57.76v2.16h-25.06v7.12c48.1,19.34,55.3,63.77,55.3,88.56,0,20.78-5.25,58.85-40.27,80.88,9.73,10.67,23.57,16.46,41.13,17.21l1.32-.03-.02.07c.78.02,1.66.04,2.58.04,31.84,0,46.67-20.32,46.67-63.93V64.8h-25.06v-2.16h77.9v2.16h-25.34v129.92c0,45.28-22.68,66.38-71.39,66.38ZM1063.41,260.11c2.27.15,4.35.22,6.37.22,48.18,0,70.62-20.85,70.62-65.6V64.02h25.34v-.62h-76.35v.62h25.06v130.7c0,44.15-15.08,64.71-47.44,64.71-1.13,0-2.21-.03-3.12-.06l-.52-.02h0s-.25,0-.25,0c-17.99-.77-32.11-6.76-42.01-17.81l-.31-.34.39-.24c35.06-21.8,40.3-59.78,40.3-80.47,0-24.64-7.15-68.82-55.05-87.94l-.24-.1v-8.41h25.06v-.62h-56.21v1.35l-.43-.05c-7.06-.86-14.61-1.3-22.44-1.3h-80.92v.62h25.34v192.9h-25.34v.62h80.92c25.44,0,46.95-4.6,63.92-13.66l.24-.13.2.19c.86.79,3.12,2.82,5.63,4.61,1.34.96,6.35,4.32,14.29,7.33.35.13,8.65,3.14,18.62,4.08,2.2.21,4.37.29,4.98.31l3.35-.16ZM1046.18,257.98c-3.79-.71-7.37-1.68-10.64-2.88-2.5-.92-6.26-2.5-10.02-4.82-3.01-1.86-5.74-3.95-8.35-6.39l-.39-.36.47-.26c1.08-.6,2.02-1.14,2.88-1.66l.27-.16.21.24c6.58,7.27,15.24,12.51,25.74,15.55l-.18.75ZM1018.09,243.68c2.46,2.25,5.01,4.19,7.81,5.92,3.73,2.31,7.44,3.87,9.9,4.77,1.01.37,2.05.72,3.11,1.04-7.34-3.11-13.6-7.46-18.66-12.98-.66.4-1.38.81-2.16,1.25ZM952.17,256.92h-29.9V64.02h29.9c18.44,0,33.99,3.68,46.21,10.93l.19.11v.22l.08,120.55c-.28,6.72.41,13.33,2.05,19.66.93,3.61,2.19,7.18,3.72,10.61,1.55,3.46,3.35,6.69,5.49,9.88v-.35c-.62-.99-1.22-2.02-1.79-3.04l.04-.02c-.31-.39-.93-1.47-2.32-4.45-2.95-6.34-4.62-13.16-4.64-13.23-1.49-6.16-2.14-12.57-1.93-19.07l.25-120.18.59.38c1.9,1.21,3.68,2.48,5.31,3.77l.15.12v115.92c0,14.37,2.82,26.67,8.39,36.57l.13.23-.18.21c-.95,1.12-2.02,2.26-3.35,3.6l-.66.66h0c-13.53,13.14-32.95,19.81-57.74,19.81ZM923.04,256.15h29.13c24.57,0,43.81-6.59,57.19-19.6-2.21-3.27-4.06-6.59-5.65-10.13-1.55-3.46-2.82-7.08-3.76-10.73-1.65-6.4-2.35-13.09-2.07-19.87l-.08-120.31c-12.07-7.11-27.42-10.71-45.63-10.71h-29.13v191.35ZM1000.29,77.06l-.25,118.78c-.21,6.44.44,12.78,1.91,18.87.02.07,1.67,6.82,4.59,13.09,1.05,2.26,2.24,4.4,2.25,4.42.58,1.04,1.19,2.08,1.82,3.09.97-.99,1.79-1.88,2.54-2.75-5.55-9.98-8.36-22.33-8.36-36.72v-115.54c-1.4-1.1-2.91-2.19-4.51-3.23ZM1014.48,232.19l-.28-.51c-5.32-9.82-8.01-21.88-8.01-35.85v-115.43l.64.54c18.38,15.53,27.31,41.54,27.31,79.53,0,32.01-6.31,55.32-19.29,71.27l-.36.45ZM1006.96,82.08v113.76c0,13.59,2.57,25.35,7.64,34.97,12.62-15.79,18.76-38.81,18.76-70.33,0-37.3-8.64-62.96-26.4-78.39ZM1005.57,72.19l-.52-.2c-1.07-.41-2.2-.79-3.3-1.17l-.75-.26v-6.54h4.57v8.17ZM1001.77,70.01l.23.08c.93.31,1.88.64,2.8.98v-6.27h-3.03v5.22ZM1000.38,70.33l-.51-.17c-7.51-2.45-15.8-4.26-24.64-5.37l.05-.77h25.1v6.31ZM980.67,64.8c6.7,1.09,13.05,2.58,18.93,4.47v-4.47h-18.93Z" class="cls-1"></path>
    </g>
    <g>
      <path d="M1617.27,198.06c-1.67,31.74-16.98,58.47-49.28,58.47h-50.12V64.41h25.06v-1.39h-126.3v1.39h.78c-2.22,4.56-5.3,7.24-12.39,7.24-13.09,0-30.35-11.42-53.18-11.42-57.92,0-96.62,47.06-96.62,100.24s35.36,100.24,96.9,100.24c45.94,0,66.83-32.86,74.62-55.69l-2.78-1.11c-8.35,23.95-28.4,55.41-71.84,55.41-58.19,0-68.77-58.75-68.77-98.85s13.64-98.85,68.5-98.85c39.82,0,57.92,30.91,65.71,62.37h1.39v-59.59h23.02v192.12h-25.34v1.39h202.04v-59.86h-1.39ZM1491.14,256.53h-22.45V64.41h22.45v192.12Z" class="cls-1"></path>
      <path d="M1352.11,261.1c-29.15,0-53.98-10.52-71.81-30.41-16.43-18.33-25.47-43.26-25.47-70.22s9.48-51.59,26.69-70.32c17.95-19.54,42.92-30.3,70.31-30.3,13.06,0,24.16,3.67,33.95,6.9,7.33,2.42,13.66,4.51,19.23,4.51,6.84,0,9.73-2.56,11.77-6.47h-.54v-2.16h127.08v2.16h-25.06v191.35h49.73c15.13,0,27.18-5.78,35.82-17.18,7.68-10.13,12.2-24.28,13.08-40.93l.02-.37h2.15v60.64h-202.81v-2.16h25.34V64.8h-22.25v59.59h-2.08l-.07-.29c-7.02-28.32-24.05-62.08-65.34-62.08-24.34,0-42.67,11.46-54.48,34.08-11.86,22.72-13.63,50.09-13.63,64.38,0,36.77,8.88,98.46,68.39,98.46,45.45,0,64.29-34.55,71.47-55.15l.13-.38,3.5,1.4-.12.35c-5.74,16.82-24.55,55.95-74.99,55.95ZM1351.83,60.62c-27.17,0-51.94,10.67-69.74,30.05-17.08,18.59-26.49,43.38-26.49,69.8s8.98,51.51,25.27,69.7c17.68,19.73,42.31,30.15,71.24,30.15,49.59,0,68.31-38.23,74.14-55.08l-2.07-.83c-7.35,20.83-26.42,55.29-72.07,55.29-25.97,0-44.99-11.64-56.56-34.6-10.42-20.69-12.61-46.57-12.61-64.63,0-14.36,1.78-41.88,13.72-64.74,11.95-22.89,30.51-34.49,55.16-34.49,41.65,0,58.89,33.84,66.01,62.37h.7v-59.59h23.8v192.9h-25.34v.62h201.27v-59.09h-.64c-.93,16.64-5.5,30.81-13.21,40.99-8.8,11.6-21.06,17.49-36.44,17.49h-50.51V64.02h25.06v-.62h-125.53v.62h1.01l-.27.56c-2.57,5.3-6.27,7.46-12.74,7.46-5.7,0-12.08-2.11-19.48-4.55-9.74-3.22-20.77-6.86-33.71-6.86ZM1491.52,256.92h-23.22V64.02h23.22v192.9ZM1469.08,256.15h21.67V64.8h-21.67v191.35Z" class="cls-1"></path>
    </g>
    <g>
      <path d="M153.81,204.19c0-32.86-27.29-49.01-66.55-51.23,32.02-2.78,53.74-15.87,53.74-43.16,0-35.08-27.29-46.78-71-46.78H.39v1.39h25.34v192.12H.39v1.39h77.96c50.4,0,75.46-22.28,75.46-53.74ZM52.45,64.41h17.54c37.31,0,44.27,19.49,44.27,45.39,0,22.55-9.75,43.16-42.88,43.16h-18.93v-88.54ZM77.24,256.53h-24.78v-102.47h24.78c37.59,0,47.06,23.95,47.06,50.12,0,22.55-3.06,52.35-47.06,52.35Z" class="cls-1"></path>
      <path d="M78.35,258.31H0v-2.16h25.34V64.8H0v-2.16h70c48.7,0,71.39,14.99,71.39,47.16,0,24.33-17.15,39.17-49.67,43.09,18.4,1.57,33.1,6.23,43.77,13.89,12.42,8.92,18.71,21.5,18.71,37.42,0,33.89-28.35,54.13-75.84,54.13ZM.77,257.54h77.58c47.01,0,75.07-19.94,75.07-53.35,0-30.37-23.5-48.43-66.18-50.85v-.77c24.34-2.12,53.37-11.26,53.37-42.77,0-16.79-6.19-28.64-18.92-36.21-11.51-6.85-28.42-10.18-51.7-10.18H.77v.62h25.34v192.9H.77v.62ZM77.24,256.92h-25.17v-103.24h25.17c17.37,0,30.13,5.18,37.93,15.4,6.31,8.27,9.51,20.08,9.51,35.11,0,11.48-.84,24.6-7.09,34.83-7.35,12.05-20.55,17.9-40.36,17.9ZM52.84,256.15h24.39c19.51,0,32.5-5.73,39.7-17.53,6.15-10.07,6.97-23.06,6.97-34.43,0-14.85-3.15-26.51-9.35-34.64-7.64-10.01-20.2-15.09-37.32-15.09h-24.39v101.69ZM71.39,153.34h-19.32v-89.32h17.93c39.25,0,44.66,22,44.66,45.77,0,35.99-23.53,43.54-43.27,43.54ZM52.84,152.57h18.55c35.12,0,42.49-23.26,42.49-42.77,0-15.19-2.49-25.1-8.06-32.16-6.82-8.64-18.54-12.84-35.82-12.84h-17.16v87.77Z" class="cls-1"></path>
    </g>
  </g>
  <g>
    <path d="M414.22,358.08c0-10.64,8.16-18.25,19.15-18.25,6.1,0,11.19,2.22,14.52,6.25l-5.24,4.84c-2.37-2.72-5.34-4.13-8.87-4.13-6.6,0-11.29,4.64-11.29,11.29s4.69,11.29,11.29,11.29c3.53,0,6.5-1.41,8.87-4.18l5.24,4.84c-3.33,4.08-8.42,6.3-14.57,6.3-10.94,0-19.1-7.61-19.1-18.25Z" class="cls-1"></path>
    <path d="M500.81,358.08c0-10.48,8.17-18.25,19.31-18.25s19.3,7.71,19.3,18.25-8.22,18.25-19.3,18.25-19.31-7.76-19.31-18.25ZM531.16,358.08c0-6.7-4.74-11.29-11.04-11.29s-11.04,4.59-11.04,11.29,4.74,11.29,11.04,11.29,11.04-4.59,11.04-11.29Z" class="cls-1"></path>
    <path d="M595.98,340.44h8.16v28.63h17.69v6.65h-25.86v-35.28Z" class="cls-1"></path>
    <path d="M676.83,340.44h8.16v28.63h17.69v6.65h-25.86v-35.28Z" class="cls-1"></path>
    <path d="M785,369.17v6.55h-27.32v-35.28h26.67v6.55h-18.55v7.66h16.38v6.35h-16.38v8.16h19.21Z" class="cls-1"></path>
    <path d="M839.59,358.08c0-10.64,8.16-18.25,19.15-18.25,6.1,0,11.19,2.22,14.52,6.25l-5.24,4.84c-2.37-2.72-5.34-4.13-8.87-4.13-6.6,0-11.29,4.64-11.29,11.29s4.69,11.29,11.29,11.29c3.53,0,6.5-1.41,8.87-4.18l5.24,4.84c-3.33,4.08-8.42,6.3-14.57,6.3-10.94,0-19.1-7.61-19.1-18.25Z" class="cls-1"></path>
    <path d="M936.12,347.09h-11.29v-6.65h30.75v6.65h-11.29v28.63h-8.16v-28.63Z" class="cls-1"></path>
    <path d="M1010.37,340.44h8.16v35.28h-8.16v-35.28Z" class="cls-1"></path>
    <path d="M1075.09,358.08c0-10.48,8.17-18.25,19.31-18.25s19.3,7.71,19.3,18.25-8.22,18.25-19.3,18.25-19.31-7.76-19.31-18.25ZM1105.43,358.08c0-6.7-4.74-11.29-11.04-11.29s-11.04,4.59-11.04,11.29,4.74,11.29,11.04,11.29,11.04-4.59,11.04-11.29Z" class="cls-1"></path>
    <path d="M1202.61,340.44v35.28h-6.7l-17.59-21.42v21.42h-8.06v-35.28h6.75l17.54,21.42v-21.42h8.07Z" class="cls-1"></path>
  </g>
</svg>